<svg width="93" height="27" viewBox="0 0 93 27" fill="none" xmlns="http://www.w3.org/2000/svg">
<g clip-path="url(#clip0_1301_20627)">
<mask id="mask0_1301_20627" style="mask-type:luminance" maskUnits="userSpaceOnUse" x="0" y="0" width="93" height="27">
<path d="M92.1176 0H0V26.9843H92.1176V0Z" fill="white"/>
</mask>
<g mask="url(#mask0_1301_20627)">
<path d="M18.5395 13.5037L20.6904 11.3714C21.3623 10.7059 21.7424 9.80069 21.747 8.85484C21.7517 7.90902 21.3805 7.00009 20.7153 6.328C20.05 5.6559 19.1451 5.27571 18.1996 5.27104C17.2541 5.26638 16.3456 5.63762 15.6737 6.30312L14.6466 7.32414C14.5168 7.45111 14.4424 7.62424 14.4397 7.80581C14.4369 7.9874 14.506 8.1627 14.6318 8.29356L14.6456 8.30739C14.7088 8.37312 14.7844 8.42563 14.868 8.46187C14.9517 8.49811 15.0417 8.51734 15.1328 8.51846C15.2239 8.51957 15.3143 8.50254 15.3988 8.46836C15.4833 8.43419 15.5601 8.38353 15.6249 8.31937L16.6566 7.29742C16.859 7.09666 17.0988 6.93773 17.3625 6.8297C17.6262 6.72168 17.9086 6.66667 18.1936 6.66782C18.4786 6.66898 18.7605 6.72628 19.0233 6.83643C19.2863 6.9466 19.5248 7.10746 19.7255 7.30986C19.9262 7.51225 20.0851 7.75221 20.1931 8.01603C20.301 8.27984 20.356 8.56236 20.3548 8.84742C20.3537 9.1325 20.2964 9.41458 20.1863 9.67749C20.0762 9.94039 19.9154 10.1791 19.713 10.3799L17.061 13.0024C16.9296 13.1329 16.8554 13.3102 16.8545 13.4955C16.8537 13.6806 16.9263 13.8585 17.0564 13.9903L19.679 16.6396C20.0805 17.0469 20.3055 17.5959 20.3055 18.1679C20.3055 18.7399 20.0805 19.2889 19.679 19.6962C19.4779 19.8999 19.2384 20.0614 18.9742 20.1714C18.7101 20.2813 18.4267 20.3375 18.1406 20.3367C17.854 20.3371 17.5702 20.2804 17.3059 20.1696C17.0415 20.0588 16.802 19.8963 16.6013 19.6916L14.3702 17.4422L13.9732 17.0478C13.9142 16.9879 13.8571 16.9271 13.8018 16.8635L13.7199 16.7714C13.6931 16.7401 13.6664 16.7087 13.6406 16.6792C13.5108 16.5207 13.3912 16.3542 13.2823 16.1807C13.2556 16.1383 13.2298 16.0969 13.2068 16.0554L13.1543 15.9632C13.0898 15.848 13.029 15.7301 12.97 15.6103C12.411 14.3883 12.3599 12.9942 12.8282 11.7345C12.8689 11.6228 12.8796 11.5024 12.8592 11.3854C12.8388 11.2683 12.7881 11.1586 12.7121 11.0673L12.7001 11.0526C12.6226 10.9589 12.5216 10.8874 12.4076 10.8453C12.2935 10.8033 12.1703 10.7921 12.0505 10.813C11.9308 10.8338 11.8186 10.8859 11.7255 10.9641C11.6323 11.0423 11.5615 11.1437 11.5201 11.258C11.1337 12.3007 11.0235 13.4257 11.1999 14.5236C11.3763 15.6215 11.8334 16.6552 12.5269 17.5243L12.585 17.5952C12.6135 17.6302 12.6439 17.6662 12.6771 17.7021C12.7508 17.7878 12.8309 17.8753 12.9148 17.9629C12.935 17.985 12.9562 18.0071 12.9783 18.0292L14.1344 19.1986L15.6 20.6786C15.9304 21.0141 16.3244 21.2803 16.7589 21.4616C17.1933 21.6429 17.6596 21.7357 18.1305 21.7346C18.6004 21.736 19.0661 21.6437 19.5001 21.4632C19.934 21.2827 20.3277 21.0175 20.6582 20.6832C21.3188 20.0145 21.6899 19.1126 21.6911 18.1724C21.6923 17.2323 21.3235 16.3295 20.6646 15.6591L18.5395 13.5037Z" fill="#35AEB1"/>
<path d="M12.9747 15.6069C13.029 15.7267 13.0898 15.8447 13.1589 15.9599L12.9673 15.6337L12.9747 15.6069Z" fill="#0F4C5C"/>
<path d="M14.9912 10.2546C14.7063 9.76368 14.3578 9.31251 13.9549 8.91286L12.8356 7.80706L11.3074 6.28934C10.6375 5.62984 9.73505 5.26069 8.79515 5.26172C7.85528 5.26275 6.95359 5.6339 6.28516 6.29487C5.95039 6.62646 5.68464 7.02116 5.50327 7.45613C5.3219 7.8911 5.22852 8.35771 5.22852 8.829C5.22852 9.30026 5.3219 9.76691 5.50327 10.2019C5.68464 10.6368 5.95039 11.0315 6.28516 11.3631L8.43795 13.4946L6.31095 15.6444C5.6513 16.3136 5.28147 17.2157 5.28147 18.1555C5.28147 19.0954 5.6513 19.9974 6.31095 20.6666C6.64162 21.0021 7.03597 21.2681 7.47083 21.449C7.90569 21.6299 8.37232 21.7219 8.84327 21.7199C9.31407 21.7207 9.78028 21.6276 10.2146 21.4459C10.6489 21.2643 11.0428 20.9978 11.3728 20.662L12.352 19.6732C12.478 19.5458 12.5492 19.3743 12.5506 19.1951C12.552 19.0159 12.4834 18.8432 12.3594 18.714L12.3465 18.6992C12.2829 18.6329 12.2067 18.5801 12.1223 18.5437C12.0379 18.5073 11.9471 18.4883 11.8552 18.4875C11.7634 18.4869 11.6723 18.5046 11.5874 18.5397C11.5025 18.5747 11.4254 18.6265 11.3608 18.6918L10.3825 19.6806C10.1815 19.8852 9.94185 20.0475 9.67738 20.1583C9.41291 20.2691 9.12905 20.3259 8.84235 20.3257C8.41416 20.3257 7.99551 20.1991 7.63914 19.9617C7.28278 19.7242 7.00463 19.3865 6.83975 18.9911C6.67486 18.5959 6.6306 18.1606 6.71256 17.7401C6.79452 17.3197 6.99902 16.933 7.3003 16.6286L9.92288 13.9784C9.98736 13.9132 10.0383 13.836 10.0729 13.7511C10.1076 13.6662 10.1251 13.5754 10.1246 13.4838C10.1241 13.3921 10.1055 13.3014 10.07 13.2169C10.0344 13.1325 9.98257 13.0558 9.91735 12.9914L7.27727 10.3661C7.07384 10.1643 6.91236 9.92439 6.80217 9.65992C6.69197 9.39545 6.63524 9.11182 6.63524 8.82531C6.63524 8.5388 6.69197 8.25514 6.80217 7.99068C6.91236 7.72623 7.07384 7.48624 7.27727 7.28456C7.68457 6.88286 8.23354 6.65767 8.8055 6.65767C9.37745 6.65767 9.92647 6.88286 10.3337 7.28456L11.8795 8.8161L12.9849 9.90808C13.6749 10.5908 14.1529 11.4586 14.3613 12.4069C14.5698 13.3551 14.4996 14.3435 14.1594 15.2528C14.1182 15.3667 14.1075 15.4894 14.1285 15.6088C14.1496 15.7281 14.2015 15.8399 14.2791 15.9329L14.2911 15.9476C14.368 16.0409 14.4683 16.1124 14.5817 16.1546C14.6951 16.1967 14.8176 16.2081 14.9369 16.1876C15.0561 16.1671 15.1679 16.1155 15.2607 16.0379C15.3535 15.9603 15.4242 15.8595 15.4656 15.7458C15.7961 14.8521 15.925 13.8963 15.8429 12.947C15.7609 11.9977 15.4701 11.0783 14.9912 10.2546Z" fill="#35AEB1"/>
<path d="M13.4905 26.9846C10.3717 26.9825 7.35018 25.8987 4.94057 23.9179C2.53098 21.937 0.882433 19.1818 0.275809 16.1215C-0.330816 13.0612 0.142005 9.88519 1.61371 7.13448C3.08542 4.38378 5.46498 2.22862 8.34698 1.03615C11.229 -0.156308 14.4351 -0.312303 17.4192 0.594749C20.4033 1.5018 22.9807 3.41578 24.7123 6.01061C26.4439 8.60545 27.2226 11.7206 26.9158 14.8254C26.6088 17.9301 25.2354 20.8324 23.0293 23.0378C21.7775 24.2917 20.2905 25.2858 18.6536 25.9631C17.0166 26.6404 15.262 26.9875 13.4905 26.9846ZM13.4905 1.3963C10.692 1.39608 7.98005 2.36657 5.81665 4.1424C3.65324 5.91822 2.17232 8.38952 1.6262 11.1352C1.08007 13.8808 1.50254 16.731 2.82162 19.2C4.1407 21.669 6.27478 23.6041 8.86021 24.6755C11.4456 25.7469 14.3225 25.8884 17.0005 25.0759C19.6785 24.2633 21.9921 22.547 23.5468 20.2193C25.1017 17.8917 25.8016 15.0966 25.5274 12.3107C25.253 9.5246 24.0216 6.91994 22.0427 4.9404C20.9223 3.81333 19.5895 2.91977 18.1215 2.31142C16.6535 1.70307 15.0795 1.39204 13.4905 1.3963Z" fill="#35AEB1"/>
<path d="M33.3685 20.018H31.2673L36.3163 13.4192L31.47 6.96864H33.5159L37.3674 12.0609L41.2188 6.9668H43.2638L38.4359 13.4173L43.4665 20.0162H41.3846L37.3674 14.7959L33.3685 20.018Z" fill="#0F4C5C"/>
<path d="M49.6855 20.2384C47.8058 20.2384 46.209 19.586 44.8954 18.2811C43.5818 16.9763 42.9247 15.379 42.9241 13.4893C42.9241 11.6021 43.5812 10.0048 44.8954 8.69751C46.2096 7.3902 47.8063 6.73778 49.6855 6.74024C51.5764 6.74024 53.1765 7.39266 54.4858 8.69751C55.7951 10.0024 56.4492 11.5996 56.4479 13.4893C56.4479 15.3766 55.7938 16.9738 54.4858 18.2811C53.1777 19.5885 51.5776 20.2409 49.6855 20.2384ZM49.6855 18.6212C51.1225 18.6212 52.3232 18.1248 53.2873 17.132C54.2515 16.1393 54.7339 14.9262 54.7345 13.493C54.7345 12.0591 54.2521 10.8458 53.2873 9.85307C52.3226 8.8603 51.122 8.36393 49.6855 8.36393C48.2595 8.36393 47.0648 8.8603 46.1012 9.85307C45.1377 10.8458 44.6553 12.0591 44.654 13.493C44.654 14.9262 45.1365 16.1393 46.1012 17.132C47.066 18.1248 48.2608 18.6212 49.6855 18.6212Z" fill="#0F4C5C"/>
<path d="M70.26 20.018H61.8376V6.9668H63.552V18.4192H70.26V20.018Z" fill="#0F4C5C"/>
<path d="M86.3528 20.2014C85.0134 20.2014 83.9046 19.748 83.0265 18.8412C82.1483 17.9345 81.7089 16.7949 81.7083 15.4225C81.7083 14.0372 82.1354 12.8945 82.9896 11.9945C83.8438 11.0944 84.9772 10.6442 86.3897 10.6436C87.8138 10.6436 88.9315 11.1458 89.7427 12.1502C90.554 13.1546 90.9105 14.3879 90.8122 15.85H83.312C83.3151 16.2422 83.3985 16.6296 83.557 16.9885C83.7154 17.3473 83.9455 17.6698 84.2332 17.9363C84.5172 18.2093 84.8522 18.4236 85.2191 18.567C85.5859 18.7104 85.9774 18.7801 86.3712 18.7721C87.624 18.7721 88.5145 18.2576 89.0427 17.2286H90.6648C90.4267 18.0891 89.8985 18.8409 89.1698 19.3564C88.4095 19.9203 87.4705 20.202 86.3528 20.2014ZM88.1565 12.693C87.6502 12.2571 87.0003 12.0246 86.3326 12.0406C85.642 12.0336 84.9696 12.2611 84.4248 12.6856C83.8659 13.1157 83.519 13.7527 83.3839 14.5968H89.1329C88.9867 13.7626 88.6613 13.1279 88.1565 12.693Z" fill="#0F4C5C"/>
<path d="M78.6591 9.58362V10.8277H81.3121V12.2799H78.6591V20.0206H77.0738V12.2799H75.0325V10.8267H77.0738V9.38181C77.0738 8.46031 77.3317 7.76151 77.8476 7.2854C78.3634 6.80929 79.0451 6.57031 79.8926 6.56847C80.3746 6.56507 80.854 6.63976 81.3121 6.78963V8.20137C81.0291 8.07851 80.6544 8.01707 80.1883 8.01707C79.6595 8.01707 79.2726 8.13226 79.0267 8.3654C78.7807 8.59854 78.6591 9.00769 78.6591 9.58362Z" fill="#0F4C5C"/>
<path d="M71.9733 14.7499V10.827H73.6877V20.0181H71.9733V15.876V14.7499ZM73.6407 8.49472C73.5385 8.60089 73.4152 8.68445 73.2787 8.74C73.1423 8.79555 72.9958 8.82187 72.8485 8.81724C72.6988 8.8206 72.5499 8.79377 72.4108 8.73836C72.2717 8.68295 72.1451 8.60009 72.0387 8.49472C71.9336 8.39031 71.8502 8.26613 71.7933 8.12932C71.7363 7.99253 71.707 7.84581 71.707 7.69762C71.707 7.54944 71.7363 7.40272 71.7933 7.26592C71.8502 7.12912 71.9336 7.00493 72.0387 6.90052C72.144 6.79302 72.2701 6.70814 72.4094 6.6511C72.5486 6.59406 72.698 6.56604 72.8485 6.56878C72.9965 6.56458 73.1437 6.59199 73.2803 6.6492C73.4169 6.70641 73.5398 6.79208 73.6407 6.90052C73.842 7.11707 73.954 7.40186 73.954 7.69762C73.954 7.99338 73.842 8.27817 73.6407 8.49472Z" fill="#0F4C5C"/>
</g>
</g>
<defs>
<clipPath id="clip0_1301_20627">
<rect width="92.1176" height="27" fill="white"/>
</clipPath>
</defs>
</svg>
